<?xml version="1.0" encoding="UTF-8" standalone="no"?>
<!-- Created with Inkscape (http://www.inkscape.org/) -->

<svg
   width="1418.4716mm"
   height="675.83673mm"
   viewBox="0 0 1418.4716 675.83673"
   version="1.1"
   id="svg5"
   inkscape:version="1.1 (ce6663b3b7, 2021-05-25)"
   sodipodi:docname="logo.svg"
   xmlns:inkscape="http://www.inkscape.org/namespaces/inkscape"
   xmlns:sodipodi="http://sodipodi.sourceforge.net/DTD/sodipodi-0.dtd"
   xmlns="http://www.w3.org/2000/svg"
   xmlns:svg="http://www.w3.org/2000/svg">
  <sodipodi:namedview
     id="namedview7"
     pagecolor="#ffffff"
     bordercolor="#666666"
     borderopacity="1.0"
     inkscape:pageshadow="2"
     inkscape:pageopacity="0.0"
     inkscape:pagecheckerboard="0"
     inkscape:document-units="mm"
     showgrid="false"
     inkscape:zoom="0.18307029"
     inkscape:cx="2777.6217"
     inkscape:cy="1578.6287"
     inkscape:window-width="1853"
     inkscape:window-height="1025"
     inkscape:window-x="67"
     inkscape:window-y="27"
     inkscape:window-maximized="1"
     inkscape:current-layer="layer1" />
  <defs
     id="defs2" />
  <g
     inkscape:label="Layer 1"
     inkscape:groupmode="layer"
     id="layer1"
     transform="translate(681.97122,130.92097)">
    <path
       style="fill:#000000;stroke-width:0.352778"
       d="m -611.95885,544.7484 c -15.7876,-1.69767 -29.8017,-7.6334 -41.8587,-17.72948 -15.421,-12.91287 -25.5652,-32.13778 -27.7957,-52.67706 -0.4773,-4.39554 -0.4773,-13.09476 0,-17.4903 3.8014,-35.0048 29.837,-63.25736 63.8336,-69.26901 5.2082,-0.92097 15.6637,-1.26055 21.2006,-0.68856 14.2961,1.47687 25.9438,6.01825 37.1524,14.48559 5.4999,4.15473 7.7307,6.98267 8.6479,10.9626 0.809,3.51071 0.156,7.81964 -1.6661,10.99344 -1.6773,2.9215 -5.4966,6.81891 -7.8202,7.98001 -6.0754,3.03594 -12.7393,2.06393 -18.6827,-2.72499 -5.0151,-4.04097 -9.9553,-6.48187 -15.5486,-7.68231 -2.3676,-0.50814 -4.4832,-0.63828 -10.0541,-0.61841 -6.4953,0.0233 -7.3351,0.10018 -10.5751,0.9701 -7.2055,1.93456 -14.3869,6.31218 -20.0385,12.21497 -6.7208,7.01953 -10.9389,15.36375 -12.4649,24.65835 -0.8363,5.0932 -0.5015,14.18685 0.6969,18.92865 2.72,10.76311 9.6796,21.00781 18.2723,26.89726 3.8076,2.60978 9.3942,5.22559 13.5259,6.33324 3.256,0.87291 4.0578,0.94576 10.407,0.94576 6.3225,0 7.1574,-0.0751 10.3185,-0.92816 1.8917,-0.5105 4.9476,-1.58965 6.791,-2.39807 l 3.3516,-1.46992 v -9.13381 -9.1338 l -8.9077,-0.006 c -10.0735,-0.007 -12.3779,-0.32367 -15.8721,-2.18176 -4.5227,-2.40506 -7.6934,-6.85948 -8.4745,-11.90568 -1.3646,-8.81638 4.8799,-16.96925 14.0714,-18.37179 1.6505,-0.25184 8.8548,-0.34208 20.9903,-0.26292 18.0762,0.1179 18.5226,0.13751 20.5658,0.90382 3.1208,1.17051 4.7485,2.24165 7.0101,4.61313 2.1631,2.26815 3.4298,4.66788 4.0846,7.73772 0.5518,2.58692 0.5567,47.61551 0.01,50.23612 -0.7179,3.41306 -1.9846,5.55766 -5.0631,8.57222 -8.5655,8.38733 -19.8924,13.7474 -34.4076,16.28218 -4.1721,0.72859 -6.5137,0.91313 -12.7,1.001 -4.1716,0.0593 -8.2197,0.0395 -8.9958,-0.044 z m 137.0542,-0.2801 c -20.6004,-2.63194 -38.1578,-11.89084 -50.5163,-26.63988 -10.163,-12.12896 -16.3326,-27.29604 -17.9458,-44.11782 -0.516,-5.37983 -0.2407,-15.61222 0.5599,-20.81389 5.3445,-34.72554 30.3283,-59.92125 64.9036,-65.45422 5.4731,-0.87584 16.9805,-1.06711 22.8844,-0.38043 36.537,4.24981 63.2714,30.27528 68.534,66.71659 0.7558,5.23381 0.8517,17.81507 0.1734,22.75417 -1.6801,12.23394 -5.4623,23.01614 -11.4836,32.73718 -5.0299,8.12063 -12.8234,16.21561 -21.1943,22.01418 -9.3161,6.45326 -20.6078,10.86453 -32.8084,12.81705 -4.8638,0.7784 -18.226,0.99067 -23.1069,0.36707 z m 20.8139,-34.01396 c 8.5733,-2.00462 15.2321,-5.6648 21.1988,-11.65249 6.3394,-6.36179 10.2612,-13.65642 12.2203,-22.73057 0.4933,-2.28466 0.6212,-4.51517 0.6109,-10.65096 -0.012,-6.93858 -0.101,-8.11629 -0.8433,-11.1125 -4.3322,-17.48621 -16.7368,-29.70999 -33.8923,-33.39836 -3.7918,-0.81523 -15.3949,-0.91193 -19.2264,-0.16019 -17.7261,3.47775 -30.8522,16.39806 -34.81,34.2641 -0.7127,3.21734 -0.8183,4.63148 -0.8038,10.75973 0.019,8.23909 0.6662,12.09234 3.0192,17.99166 5.7832,14.49935 17.6567,24.24674 32.9296,27.03319 4.818,0.87902 15.1422,0.69801 19.597,-0.34361 z m 395.993049,34.27053 c -3.39689,-0.30864 -10.43361,-1.65664 -13.71645,-2.62763 -15.89437,-4.70115 -28.764059,-15.00424 -35.083759,-28.087 -3.47454,-7.19282 -2.5546,-13.51644 2.73594,-18.80697 2.54236,-2.54237 4.967279,-3.88261 8.555599,-4.72853 4.00117,-0.94326 7.54514,-0.48482 11.57951,1.49786 2.55545,1.25589 6.28043,4.98567 7.75271,7.76266 2.50218,4.7196 8.40885,8.84216 15.35423,10.71651 3.87304,1.04521 14.96999,1.17027 18.52084,0.2087 3.82457,-1.03568 7.13532,-2.86194 9.11486,-5.02789 2.48323,-2.71706 3.31575,-5.06321 3.31575,-9.3442 0,-4.04608 -0.7367,-6.28023 -3.03233,-9.19597 -3.53734,-4.49291 -9.27146,-6.87804 -20.3344,-8.4582 -10.08059,-1.43986 -17.20088,-3.45697 -24.11617,-6.83189 -16.05851,-7.83717 -25.631349,-20.81749 -26.996109,-36.60546 -2.20362,-25.49229 16.024759,-44.91306 45.291449,-48.25415 4.63808,-0.52945 12.76079,-0.44795 17.06446,0.17124 9.52123,1.36987 19.22209,5.43747 26.85867,11.26187 4.68704,3.5748 10.3510295,9.84917 13.3336595,14.77049 3.46756,5.72142 3.67107,12.33547 0.54589,17.74073 -1.06201,1.83681 -4.4903,5.12325 -6.31286,6.05162 -7.4100195,3.77451 -17.0172595,1.5766 -21.8893295,-5.00778 -3.23166,-4.36743 -4.23404,-5.56313 -5.6116,-6.69389 -4.367,-3.58461 -7.99969,-4.82491 -14.81667,-5.05891 -9.67944,-0.33221 -16.62102,1.9611 -19.37896,6.40232 -0.87023,1.40131 -1.05876,2.12743 -1.18703,4.57119 -0.12866,2.45117 -0.0282,3.19412 0.64273,4.75375 1.0148,2.35896 3.17267,4.2695 6.85151,6.06612 3.8815,1.89562 7.85368,2.96118 16.52231,4.4322 17.54145,2.97666 28.06234,7.46513 36.7190095,15.66527 8.00287,7.58077 12.3267,16.51557 13.65766,28.22222 0.48697,4.2834 0.25893,10.73859 -0.53803,15.22974 -3.73975998,21.07515 -20.7358195,35.73635 -45.1051695,38.90885 -3.76968,0.49075 -12.42103,0.64742 -16.29792,0.29513 z m 613.304201,0.047 c -0.48507,-0.0831 -2.3107,-0.32915 -4.05695,-0.54681 -12.345,-1.53867 -26.1565,-7.50986 -36.5125,-15.78557 -3.42071,-2.73357 -9.2946,-8.62584 -12.18107,-12.2192 -3.80216,-4.73325 -6.64979,-9.26617 -9.52969,-15.16944 -5.69422,-11.67208 -8.02252,-21.82238 -8.05169,-35.10139 -0.0222,-10.12476 1.00256,-16.72883 4.00145,-25.78633 3.92338,-11.84974 10.12077,-22.01986 18.68699,-30.66602 14.74051,-14.87805 33.80631,-22.92266 54.32694,-22.92266 18.51646,0 33.46213,5.14671 47.54954,16.37426 4.99015,3.97711 6.84657,7.46728 6.83475,12.84971 -0.0102,4.70737 -1.68599,8.2828 -5.87654,12.539 -5.95086,6.04414 -15.33641,6.27341 -22.20651,0.54239 -5.01932,-4.18708 -9.74108,-6.57578 -15.69861,-7.94184 -3.26613,-0.74891 -12.95309,-1.04852 -16.6104,-0.51378 -12.75116,1.86446 -24.95889,10.76829 -31.70436,23.12388 -4.61997,8.46239 -6.49622,18.72262 -5.19313,28.39861 0.7494,5.56468 1.99637,9.64875 4.46997,14.64028 5.88448,11.87428 16.38004,20.61615 28.5768,23.80191 4.12366,1.0771 12.24111,1.35739 16.94798,0.58523 6.4655,-1.06067 13.06019,-3.90677 19.09801,-8.24223 3.8197,-2.74274 6.28125,-3.91548 9.30614,-4.43361 5.67838,-0.97268 12.40575,2.00755 16.06412,7.11645 3.69059,5.1538 3.83918,13.31683 0.34273,18.82743 -1.39711,2.20193 -3.67662,4.38348 -7.85146,7.51413 -8.64119,6.47993 -18.33234,10.3233 -31.15335,12.35495 -3.34239,0.52966 -17.54611,1.00894 -19.57916,0.66065 z m -921.80835,-2.22815 c -1.0672,-0.34438 -2.4959,-0.91122 -3.175,-1.2597 -3.5393,-1.81603 -6.8381,-5.73846 -8.0671,-9.59192 l -0.7714,-2.41903 0.098,-64.20556 0.098,-64.20556 1.0932,-2.29305 c 2.2934,-4.81062 6.029,-8.12289 10.7929,-9.56988 3.19,-0.96893 7.9163,-0.80567 10.9824,0.37938 4.5981,1.77716 8.6509,6.1171 10.1031,10.81864 0.7097,2.2976 0.7187,2.9978 0.7187,55.8987 v 53.57195 l 30.07427,0.10132 30.0743,0.10128 2.29306,0.8212 c 10.14098,3.6317 14.46777,14.29088 9.65563,23.78713 -1.13481,2.23944 -4.28826,5.38893 -6.69752,6.68909 -3.92158,2.11628 -2.24106,2.04184 -45.63015,2.0211 -37.02809,-0.0176 -39.83219,-0.0611 -41.64189,-0.64509 z m 115.74799,0.1058 c -5.42173,-1.458 -10.00157,-5.91792 -11.69123,-11.38513 -0.67783,-2.19325 -0.69279,-3.61675 -0.68869,-65.44028 0.004,-52.30121 0.0873,-63.5104 0.4862,-65.00858 1.16829,-4.38757 4.65574,-8.7799 8.46793,-10.66507 3.77208,-1.86535 2.12044,-1.80376 48.36806,-1.80376 46.21865,0 44.55407,-0.0615 48.41667,1.78866 2.31419,1.10843 6.10538,4.98002 7.22207,7.37521 1.94867,4.17957 2.19883,9.45592 0.64107,13.51992 -1.66822,4.35212 -5.78034,8.3463 -10.24231,9.94858 -1.87311,0.67264 -3.1037,0.70012 -35.54236,0.79358 l -33.60209,0.0968 v 13.38517 13.38513 l 23.72431,0.10001 23.72431,0.10001 1.98233,0.80183 c 9.31143,3.7664 13.45424,14.22153 9.22884,23.29071 -1.04077,2.23386 -4.21799,5.76665 -6.26526,6.96644 -0.81097,0.47526 -2.41434,1.21857 -3.56299,1.65178 -2.07214,0.78147 -2.27104,0.78853 -25.44152,0.89994 l -23.35308,0.11228 -0.10664,23.35516 -0.10668,23.3552 -0.82081,2.274 c -2.61324,7.23999 -8.84936,11.702 -16.26475,11.63751 -1.46851,-0.0127 -3.52651,-0.25354 -4.57338,-0.53506 z m 278.657559,-0.10696 c -1.06716,-0.34502 -2.6475,-0.99131 -3.51184,-1.4362 -2.12591,-1.09417 -5.37301,-4.41046 -6.50423,-6.64284 -2.09162,-4.1276 -1.97838,-0.18496 -1.97838,-68.87693 0,-56.91819 0.055,-63.19429 0.5685,-64.92519 1.75821,-5.92582 6.16857,-10.29476 11.95511,-11.84279 3.71091,-0.99275 9.19156,-0.41627 12.60683,1.3261 1.87668,0.95736 5.38293,4.29111 6.4781,6.15932 0.46404,0.79163 1.20166,2.37913 1.63911,3.52778 l 0.79541,2.08848 v 63.5 c 0,60.63576 -0.0293,63.59546 -0.64851,65.61667 -0.99219,3.23832 -2.27877,5.32042 -4.66955,7.55689 -3.49211,3.26668 -7.01167,4.61676 -11.96805,4.5908 -1.70336,-0.009 -3.59146,-0.26349 -4.7625,-0.64209 z m 48.53682,0.2704 c -6.15463,-1.44343 -11.51315,-7.30681 -12.53525,-13.71625 -0.50581,-3.17172 -0.50581,-123.47551 0,-126.64723 1.05452,-6.61267 6.50131,-12.43866 12.86397,-13.75953 1.35943,-0.28222 8.32259,-0.35616 23.713551,-0.25185 24.05277,0.16302 24.28942,0.18211 33.857,2.72962 26.08266,6.94496 45.85342,27.23342 52.31666,53.68668 1.85565,7.59484 2.2612,11.29767 2.27193,20.74231 0.0106,9.24334 -0.39659,13.19914 -2.08739,20.28472 -4.54857,19.06143 -15.76613,35.07147 -31.87404,45.49165 -6.15255,3.98004 -16.19232,8.08464 -24.12876,9.86465 -7.86871,1.76481 -11.43131,1.97316 -33.082341,1.93464 -10.96373,-0.0194 -20.55566,-0.18119 -21.31533,-0.35938 z m 42.588641,-32.79444 c 14.08624,-2.11522 25.19306,-10.06277 31.25036,-22.36145 3.97009,-8.06083 5.58793,-17.55775 4.6294,-27.17564 -1.07841,-10.82111 -4.94425,-19.75866 -11.52638,-26.64809 -4.81115,-5.03577 -10.07441,-8.38229 -16.5584,-10.52823 -5.41412,-1.79187 -8.714,-2.1584 -19.43121,-2.1584 h -9.639231 v 44.62639 44.62639 h 9.369211 c 5.1531,0 10.51091,-0.17145 11.90625,-0.38097 z m 91.60528,32.38645 c -4.312,-1.47027 -7.54814,-4.13787 -9.60557,-7.91806 -2.14447,-3.94011 -2.02794,0.008 -2.02794,-68.71381 0,-68.75565 -0.11938,-64.72845 2.03863,-68.76525 1.25546,-2.34851 4.43572,-5.54101 6.62337,-6.6488 4.20726,-2.13057 1.56576,-2.02107 48.64022,-2.01648 35.27817,0.004 43.39033,0.0913 44.87337,0.4862 2.94838,0.78507 5.99775,2.62689 8.08916,4.88587 3.39873,3.671 4.54325,6.91345 4.32841,12.26234 -0.12552,3.12487 -0.25838,3.67482 -1.48996,6.16673 -1.6009,3.23917 -4.46528,6.24861 -7.30088,7.67048 -4.17364,2.09286 -3.12931,2.03807 -38.84866,2.03807 h -32.73422 v 13.40556 13.40555 h 22.85644 c 24.81231,0 24.8182,0 28.74324,1.98674 3.6945,1.86965 7.40466,6.64701 8.35141,10.75373 0.58036,2.51742 0.44592,6.72094 -0.29072,9.08769 -0.93363,2.99971 -2.10524,4.84273 -4.57722,7.20013 -2.50331,2.38732 -5.59686,3.94554 -8.86926,4.46737 -1.40261,0.22369 -10.82065,0.36671 -24.25347,0.36833 l -21.96042,0.004 v 13.58194 13.58195 l 32.89653,0.004 c 35.68704,0.005 34.50128,-0.0558 38.63375,1.96603 2.85578,1.39718 5.88173,4.59282 7.4239,7.84017 1.12151,2.36167 1.29441,3.09093 1.42148,5.9968 0.17833,4.07705 -0.52613,6.98539 -2.39088,9.87051 -2.29408,3.54937 -5.63845,6.01084 -9.8745,7.26768 -1.71736,0.50952 -6.40126,0.56755 -45.15556,0.5594 l -43.23944,-0.009 -2.30121,-0.78465 z m 123.39984,-0.004 c -6.29638,-2.20489 -10.71266,-7.56927 -11.55125,-14.03114 -0.47053,-3.6256 -0.46637,-122.10044 0.004,-125.39317 0.42048,-2.94096 2.1566,-6.75978 4.0755,-8.96461 1.8257,-2.09776 5.06533,-4.13187 8.00044,-5.02341 3.13941,-0.95356 7.90349,-0.79181 10.90807,0.37031 4.20902,1.62803 8.14426,5.54492 9.87386,9.82782 0.81534,2.01906 0.81851,2.09077 0.91828,20.87933 l 0.10008,18.85333 24.0652,-23.98508 c 25.26594,-25.18184 25.02408,-24.96633 29.29911,-26.10457 2.42147,-0.64474 6.64619,-0.62156 9.24401,0.0507 5.70185,1.47553 9.96273,6.1721 11.29274,12.44742 0.62741,2.96023 0.62452,3.87572 -0.0219,6.94044 -1.18061,5.59837 -0.5926,4.90315 -24.1705,28.575 l -21.43408,21.51945 20.9828,28.575 c 11.54056,15.71625 21.39686,29.21 21.90285,29.98611 4.44602,6.81912 3.42857,15.9173 -2.42627,21.69626 -3.19331,3.15192 -6.72437,4.56441 -11.43152,4.57288 -4.60353,0.008 -8.29221,-1.44974 -11.48764,-4.54064 -1.17595,-1.13746 -10.29077,-13.17717 -21.52428,-28.43128 -10.71651,-14.55208 -19.6983,-26.69092 -19.95953,-26.97519 -0.41053,-0.44672 -0.73667,-0.25834 -2.40478,1.38906 l -1.92984,1.90585 -0.0983,21.89431 -0.0984,21.8943 -0.81142,2.00798 c -1.73817,4.30128 -5.6782,8.229 -9.86257,9.83167 -1.44071,0.55182 -3.04515,0.81746 -5.55378,0.91952 -3.0334,0.12343 -3.86042,0.0272 -5.90138,-0.68764 z m 117.59244,0.24659 c -4.24942,-1.14275 -8.59694,-4.61712 -10.38401,-8.29857 -2.1324,-4.39285 -2.01831,-0.25625 -1.91664,-69.48692 l 0.0929,-63.295 0.83989,-2.24561 c 2.4909,-6.65988 8.82612,-10.98356 16.09344,-10.98356 7.62498,0 13.8163,4.42941 16.27255,11.64167 0.63627,1.86835 0.66079,4.30795 0.66079,65.79306 v 63.85278 l -0.84466,2.29252 c -1.09308,2.96676 -2.19145,4.67692 -4.30576,6.70409 -3.23059,3.09749 -7.17458,4.60375 -11.94523,4.56212 -1.46293,-0.0127 -3.51642,-0.25354 -4.56329,-0.53506 z m 189.65119,0.17181 c -3.72829,-0.8774 -8.20398,-4.16458 -10.41446,-7.64897 -0.58127,-0.91627 -1.38878,-2.75424 -1.7944,-4.08435 -0.73646,-2.41487 -0.73755,-2.51055 -0.73335,-65.26389 0.005,-67.56725 -0.0798,-64.33725 1.77948,-68.17805 0.43466,-0.89789 1.73499,-2.64245 2.88964,-3.87675 3.48749,-3.72815 7.33478,-5.43447 12.23585,-5.42678 7.5046,0.0117 13.63133,4.32259 16.32941,11.48955 0.76994,2.04527 0.78849,2.465 0.90131,20.40876 l 0.11518,18.32053 23.53011,-23.47966 c 15.09381,-15.06149 24.13543,-23.82647 25.21842,-24.4469 5.32959,-3.05322 12.49084,-3.08331 17.62577,-0.074 5.81469,3.40765 8.92648,11.44675 7.13352,18.42914 -1.27074,4.94859 -0.77706,4.37914 -23.84912,27.50916 -11.80966,11.83929 -21.4721,21.63 -21.4721,21.75707 0,0.12711 9.75762,13.53852 21.68363,29.80316 16.3008,22.23104 21.91603,30.14134 22.6199,31.86515 1.78643,4.37512 1.51299,10.02676 -0.69611,14.38617 -1.13605,2.24194 -3.67213,5.02363 -5.85999,6.42758 -5.93661,3.8095 -14.56637,3.15221 -19.93215,-1.51818 -0.77612,-0.67553 -10.61862,-13.69833 -21.87223,-28.93953 l -20.46111,-27.71129 -1.83709,1.80562 -1.83709,1.80566 -0.10947,21.72268 c -0.10834,21.4987 -0.11761,21.7442 -0.89849,23.81088 -2.69892,7.14301 -8.96958,11.55537 -16.28397,11.45829 -1.46851,-0.0194 -3.2735,-0.17745 -4.01109,-0.35101 z M -11.531031,358.67018 c -20.25036,-1.65844 -48.26264,-9.44876 -73.20139,-20.35764 -4.32223,-1.89068 -12.40102,-5.64924 -12.62585,-5.87407 -0.41327,-0.41331 7.40876,-11.89376 18.68333,-27.42152 4.04146,-5.56602 7.34808,-10.19704 7.34808,-10.29113 0,-0.0941 -1.78594,-1.20791 -3.96875,-2.47516 -20.909,-12.13873 -37.575069,-12.3759 -49.966599,-0.71102 -3.21102,3.02271 -6.63364,7.49508 -8.80738,11.50871 -0.70753,1.3064 -1.36582,2.37493 -1.46283,2.37451 -0.097,0 -1.1176,-2.33931 -2.26797,-5.19751 -12.00006,-29.81505 -30.45461,-59.97692 -49.91051,-81.57309 l -1.43016,-1.5875 -7.33252,7.40833 c -4.03289,4.07458 -9.05733,9.39271 -11.16539,11.81805 -2.10806,2.42535 -4.02791,4.61988 -4.26635,4.8767 -0.35528,0.38273 -0.99921,0.14044 -3.56986,-1.34334 -1.72502,-0.99568 -7.74016,-4.12355 -13.36697,-6.95085 -17.54357,-8.81504 -23.7116,-12.75991 -32.60192,-20.85102 -5.93838,-5.40451 -13.5842,-14.62276 -19.02584,-22.93856 -2.39807,-3.66473 -2.61172,-4.25023 -3.56351,-9.76654 -1.0106,-5.85723 -1.40871,-11.72191 -1.79437,-26.43393 -0.1929,-7.35964 -0.40248,-13.43289 -0.4657,-13.49611 -0.0632,-0.0632 -4.78377,0.98438 -10.49013,2.32801 -39.86003,9.38551 -70.02933,15.14439 -91.69053,17.50236 -6.9371,0.75516 -25.8863,1.0928 -30.707,0.54715 -12.8191,-1.45097 -25.4506,-5.40181 -39.143,-12.24298 -13.6116,-6.80081 -25.3295,-14.71692 -39.5027,-26.68618 -8.6232,-7.28232 -22.9058,-21.651965 -30.4644,-30.650099 l -1.6764,-1.995667 8.3933,0.187611 c 31.6089,0.706525 78.7022,-4.335798 127.3928,-13.640062 22.3112,-4.263453 32.581,-6.839387 47.688,-11.961389 13.07718,-4.433803 21.5058,-8.037188 40.74584,-17.419564 16.10025,-7.851265 18.78906,-9.077245 32.374,-14.761115 23.59371,-9.87149 38.89647,-14.45324 58.11351,-17.39956 15.38658,-2.35905 20.13648,-2.58358 67.55695,-3.19353 C -53.282031,8.7879652 -29.352061,8.1207852 -0.94769148,5.9108152 17.780109,4.4537252 19.557829,4.1325952 32.037029,-0.04758478 c 8.3724,-2.80452002 15.51774,-5.57831012 21.89558,-8.49976012 15.48754,-7.0942501 30.2018,-10.6173901 48.828011,-11.6912301 7.70219,-0.44405 18.86239,-0.0555 27.49222,0.95724 l 4.55326,0.53433 3.67986,-1.86218 3.67983,-1.86218 4.03786,-0.11885 c 3.72974,-0.10978 4.07747,-0.17934 4.55739,-0.9118 0.86822,-1.32504 1.55826,-8.61073 1.0093,-10.65634 l -0.20151,-0.75087 -2.52768,0.65663 c -1.54464,0.40126 -3.76633,0.65899 -5.71243,0.66268 -5.89661,0.0112 -6.073,-1.05474 -1.62535,-9.82076 3.13736,-6.18358 3.91541,-8.71311 3.92197,-12.75097 0.004,-2.51085 -1.82898,-15.33438 -2.95003,-20.6375 -1.17789,-5.57199 -1.67464,-9.3147 -1.68872,-12.72349 -0.0176,-4.27266 0.641,-6.900788 2.38965,-9.535228 1.59981,-2.410187 8.56689,-9.110377 13.31122,-12.801267 4.6615,-3.62645 12.60553,-8.95103 15.93152,-10.67829 9.89397,-5.13815 37.86269,-9.96793 45.68472,-7.88907 4.54297,1.20739 9.03507,4.24539 13.0483,8.82457 3.90818,4.45927 5.38561,7.42279 10.62712,21.31642 1.71464,4.544997 3.65922,9.079465 4.32128,10.076595 1.92031,2.89218 6.74747,7.75748 10.41975,10.50206 4.64026,3.46801 7.44467,6.16922 7.44467,7.17071 0,0.95172 -1.2349,1.90891 -4.12807,3.19978 -2.28998,1.02175 -6.65773,2.57946 -9.70915,3.4627 l -2.01919,0.58444 -0.0975,5.18115 c -0.0969,5.14936 -0.0913,5.19151 0.91122,6.87041 3.12057,5.2257 2.19488,7.85812 -3.31488,9.42696 -3.61759,1.03007 -3.54245,0.87623 -4.93232,10.09364 -1.05961,7.02708 -1.61294,9.43728 -2.60869,11.36289 -0.30991,0.59928 -0.81135,2.16744 -1.11432,3.48481 -0.30296,1.31737 -0.79177,2.76725 -1.08624,3.22196 -1.61265,2.49018 -8.24343,3.12462 -13.79971,1.32038 -1.60426,-0.52095 -3.69884,-1.03979 -4.65462,-1.15299 -1.59763,-0.18922 -1.82471,-0.11888 -2.81577,0.87219 -0.87859,0.87858 -1.07802,1.36791 -1.07802,2.64507 0,2.3373201 0.84656,3.1550801 4.85655,4.6914101 8.26375,3.1660601 9.61041,4.4521501 14.54623,13.8918401 l 1.94028,3.7107498 4.40972,1.47753 c 2.42535,0.81264 7.40072,2.44024 11.05641,3.6169 7.9678,2.56461 11.644,4.23564 14.65513,6.66159 9.74944,7.85473 40.59661,38.683522 48.80737,48.778283 1.60257,1.970303 2.38665,3.765822 2.38665,5.465442 0,1.121121 -0.29305,1.560939 -2.33553,3.505366 l -2.33553,2.223396 1.94141,2.414993 c 3.44046,4.279826 9.96671,13.332711 14.7707,20.489255 10.96109,16.32878 16.54175,27.22005 16.52933,32.25878 -0.006,2.48913 -1.13065,7.83188 -2.0659,9.81557 -0.44129,0.93596 -5.47338,6.94462 -12.26094,14.64028 -6.33183,7.17903 -17.06209,19.40278 -23.84502,27.16389 -6.7829,7.76111 -14.06998,16.03144 -16.19349,18.37851 -2.12355,2.34707 -4.36429,4.96645 -4.97942,5.82084 -0.61514,0.85438 -5.80913,6.31917 -11.54215,12.14396 -10.50911,10.67731 -15.72994,16.50457 -16.99994,18.97458 -0.80567,1.567 -1.67217,1.99662 -8.32425,4.12732 -10.54079,3.3763 -53.01686,14.1889 -62.92226,16.01735 -17.8846,3.30129 -60.63467,7.95292 -73.21328,7.96632 l -2.86932,0.004 -0.26998,-2.38125 c -0.14848,-1.30969 -0.25333,-7.8032 -0.23294,-14.43006 l 0.037,-12.04881 -1.66024,-1.54502 c -2.18151,-2.0306 -5.38325,-4.4284 -16.646601,-12.46701 -12.46809,-8.89848 -15.79535,-11.61093 -17.84749,-14.5497 -2.79336,-4.00027 -5.46686,-6.86145 -8.97029,-9.60013 -6.98567,-5.46078 -22.82095,-17.29204 -23.13351,-17.2841 -0.791,0.0201 -11.14192,15.8114 -16.64388,25.39172 -21.2114705,36.93481 -32.8744505,79.09214 -32.8901805,118.88611 -0.004,8.532 1.04599,22.25894 1.98871,26.01511 0.22645,0.90223 0.63271,0.86899 -4.9919795,0.40837 z m 104.11143,-171.5926 c 1.72318,-0.29163 5.80672,-1.11351 9.074541,-1.82641 5.50838,-1.20167 5.96787,-1.36234 6.30259,-2.20379 0.56987,-1.43245 0.76492,-13.75683 0.31312,-19.78124 -0.46704,-6.22702 -1.49733,-14.78532 -2.52698,-20.99028 -1.13344,-6.83065 -3.18809,-16.90692 -3.51762,-17.25109 -0.30561,-0.31918 -9.145901,6.90061 -16.475991,13.45582 -4.5031,4.02705 -22.31581,21.62847 -22.31581,22.0511 0,0.4285 19.74625,24.54696 21.68148,26.48219 0.75621,0.75623 3.24707,0.77749 7.46467,0.0637 z m 163.045851,-0.91684 c 1.08674,-0.37388 5.05542,-1.31997 8.81934,-2.10241 6.327,-1.31525 11.72288,-2.77693 12.61262,-3.41661 0.20338,-0.14622 0.75375,-0.82148 1.22301,-1.50058 0.4693,-0.67909 1.67594,-2.23836 2.68143,-3.46504 1.02711,-1.25307 3.25624,-4.96289 5.08741,-8.46667 1.7926,-3.42999 6.27881,-11.7732 9.96936,-18.54047 l 6.71004,-12.30413 -0.61605,-1.14395 c -0.84251,-1.56446 -18.44813,-22.4886 -22.97409,-27.30452 -0.39056,-0.4156 -1.00591,0.0586 -3.92646,3.02611 -3.5869,3.64451 -5.08906,4.58986 -6.66492,4.19435 -0.50722,-0.12731 -2.05814,-1.44184 -3.44643,-2.92119 -1.38832,-1.47936 -3.43806,-3.65537 -4.55503,-4.83558 l -2.03083,-2.14585 -0.67469,0.87089 c -2.51979,3.25247 -5.32871,22.37083 -6.37152,43.36625 -0.60078,12.0958 -0.37038,27.09396 0.55181,35.92255 0.21439,2.05242 0.27506,2.17134 0.92929,1.82122 0.38495,-0.20602 1.58902,-0.68049 2.67571,-1.05437 z"
       id="path378" />
  </g>
</svg>
